<?xml version="1.0" encoding="iso-8859-1"?>
<!-- Generator: Adobe Illustrator 19.0.0, SVG Export Plug-In . SVG Version: 6.00 Build 0)  -->
<svg version="1.1" id="Layer_1" xmlns="http://www.w3.org/2000/svg" xmlns:xlink="http://www.w3.org/1999/xlink" x="0px" y="0px"
	 viewBox="0 0 512 512" style="enable-background:new 0 0 512 512;" xml:space="preserve">
<path style="fill:#49618C;" d="M256,7.604C118.814,7.604,7.604,118.814,7.604,256S118.814,504.396,256,504.396
	S504.396,393.186,504.396,256S393.186,7.604,256,7.604z M256,467.981c-117.074,0-211.981-94.908-211.981-211.981
	S138.925,44.019,256,44.019S467.981,138.926,467.981,256S373.074,467.981,256,467.981z"/>
<path style="fill:#E6E6E6;" d="M256,44.019C138.926,44.019,44.019,138.926,44.019,256S138.926,467.981,256,467.981
	S467.981,373.074,467.981,256S373.074,44.019,256,44.019z M256,438.051c-100.544,0-182.051-81.507-182.051-182.051
	S155.456,73.949,256,73.949S438.051,155.456,438.051,256S356.544,438.051,256,438.051z"/>
<path style="fill:#EDD154;" d="M256,201.112c-30.314,0-54.888,24.574-54.888,54.888s24.575,54.888,54.888,54.888
	s54.888-24.574,54.888-54.888S286.314,201.112,256,201.112z M256,271.323c-8.462,0-15.322-6.86-15.322-15.323
	c0-8.462,6.86-15.322,15.322-15.322c8.463,0,15.323,6.86,15.323,15.322C271.321,264.463,264.462,271.323,256,271.323z"/>
<path d="M437.019,74.981C388.668,26.629,324.38,0,256,0S123.332,26.629,74.981,74.981S0,187.62,0,256s26.629,132.668,74.981,181.019
	S187.62,512,256,512s132.668-26.629,181.019-74.981C485.371,388.668,512,324.38,512,256S485.371,123.332,437.019,74.981z
	 M426.266,426.266c-45.48,45.48-105.949,70.526-170.266,70.526s-124.786-25.046-170.266-70.526S15.208,320.317,15.208,256
	S40.254,131.214,85.734,85.734S191.683,15.208,256,15.208s124.786,25.046,170.266,70.526S496.792,191.683,496.792,256
	S471.746,380.786,426.266,426.266z"/>
<path d="M411.27,100.73C369.796,59.256,314.654,36.415,256,36.415S142.204,59.256,100.73,100.73
	C59.255,142.204,36.415,197.346,36.415,256s22.841,113.796,64.315,155.27s96.617,64.315,155.27,64.315
	c46.879,0,91.609-14.568,129.357-42.128c3.391-2.476,4.134-7.234,1.658-10.625s-7.234-4.135-10.625-1.657
	c-35.125,25.647-76.754,39.203-120.388,39.203c-112.694,0-204.377-91.683-204.377-204.377S143.306,51.623,256,51.623
	S460.377,143.306,460.377,256c0,54.591-21.26,105.915-59.861,144.517c-2.97,2.97-2.97,7.784,0,10.753
	c2.97,2.969,7.783,2.971,10.754,0c41.474-41.474,64.315-96.616,64.315-155.27S452.745,142.204,411.27,100.73z"/>
<path d="M256,66.345C151.424,66.345,66.345,151.424,66.345,256S151.424,445.655,256,445.655S445.655,360.576,445.655,256
	S360.576,66.345,256,66.345z M430.447,256c0,7.719-0.51,15.319-1.486,22.775l-110.555-19.497c0.057-1.086,0.086-2.179,0.086-3.278
	c0-1.1-0.03-2.194-0.087-3.28l110.554-19.497C429.936,240.68,430.447,248.281,430.447,256z M212.936,374.338
	c-3.946-1.436-8.31,0.598-9.746,4.544l-13.935,38.281c-14.172-5.892-27.403-13.599-39.405-22.831l72.127-85.955
	c1.829,1.192,3.724,2.289,5.679,3.289l-15.578,42.798c-1.437,3.947,0.598,8.31,4.544,9.746c0.859,0.312,1.737,0.46,2.601,0.46
	c3.105,0,6.021-1.917,7.146-5.005l15.575-42.788c2.114,0.488,4.267,0.868,6.456,1.136v112.258
	c-15.563-0.671-30.603-3.384-44.858-7.889l13.941-38.298C218.917,380.137,216.882,375.775,212.936,374.338z M81.553,256
	c0-7.719,0.51-15.32,1.487-22.777l110.554,19.496c-0.057,1.087-0.087,2.181-0.087,3.282c0,1.1,0.03,2.193,0.086,3.28L83.039,278.775
	C82.063,271.318,81.553,263.719,81.553,256z M313.517,231.574l97.188-56.113c6.976,13.346,12.273,27.701,15.615,42.784
	l-110.555,19.498C315.12,235.638,314.371,233.578,313.517,231.574z M303.284,256c0,26.072-21.212,47.284-47.284,47.284
	c-26.072,0-47.284-21.212-47.284-47.284c0-26.072,21.212-47.284,47.284-47.284C282.072,208.716,303.284,229.928,303.284,256z
	 M263.607,193.987V81.729c15.564,0.671,30.605,3.386,44.861,7.892l-38.397,105.503C267.955,194.636,265.799,194.255,263.607,193.987
	z M248.399,193.986c-2.192,0.268-4.348,0.648-6.464,1.138L203.537,89.619c14.256-4.506,29.298-7.22,44.862-7.89L248.399,193.986
	L248.399,193.986z M227.647,200.337c-1.952,0.998-3.844,2.094-5.671,3.284l-72.126-85.954c12.002-9.231,25.231-16.939,39.401-22.829
	L227.647,200.337z M196.235,237.741L85.68,218.246c3.342-15.085,8.639-29.441,15.617-42.788l97.188,56.113
	C197.629,233.576,196.88,235.636,196.235,237.741z M196.235,274.257c0.645,2.106,1.394,4.166,2.249,6.17l-97.189,56.114
	c-6.977-13.348-12.275-27.704-15.615-42.788L196.235,274.257z M263.607,318.013c2.189-0.267,4.342-0.648,6.456-1.136l38.402,105.503
	c-14.255,4.506-29.297,7.22-44.858,7.891V318.013z M284.351,311.663c1.952-0.998,3.845-2.094,5.672-3.284l72.126,85.955
	c-12.001,9.23-25.229,16.937-39.397,22.827L284.351,311.663z M315.765,274.256l110.555,19.498
	c-3.341,15.083-8.638,29.438-15.615,42.785l-97.188-56.113C314.372,278.42,315.121,276.36,315.765,274.256z M403.086,162.3
	l-97.195,56.117c-1.32-1.747-2.734-3.418-4.226-5.016l34.002-40.521c2.7-3.217,2.28-8.014-0.937-10.712
	c-3.217-2.7-8.014-2.28-10.712,0.937l-33.997,40.515c-1.824-1.189-3.714-2.283-5.662-3.28l38.396-105.5
	c14.167,5.89,27.394,13.596,39.393,22.825L342.91,140.59c-2.7,3.217-2.28,8.014,0.937,10.712c1.424,1.195,3.159,1.779,4.884,1.779
	c2.171,0,4.325-0.924,5.829-2.716l19.233-22.92C384.998,137.722,394.863,149.436,403.086,162.3z M138.207,127.447l72.127,85.955
	c-1.49,1.597-2.904,3.266-4.223,5.012l-97.196-56.118C117.137,149.435,127.002,137.722,138.207,127.447z M108.915,349.702
	l97.196-56.117c1.319,1.746,2.732,3.415,4.223,5.012l-72.128,85.956C127,374.277,117.136,362.564,108.915,349.702z M373.792,384.554
	l-72.127-85.956c1.491-1.598,2.907-3.269,4.226-5.016l97.195,56.117C394.864,362.562,384.999,374.277,373.792,384.554z"/>
<path d="M233.074,256c0,12.642,10.285,22.926,22.926,22.926s22.925-10.285,22.925-22.926c0-12.641-10.285-22.925-22.925-22.925
	S233.074,243.359,233.074,256z M263.718,256c0,4.256-3.462,7.719-7.718,7.719c-4.256,0-7.719-3.462-7.719-7.719
	c0-4.255,3.462-7.717,7.719-7.717C260.255,248.283,263.718,251.745,263.718,256z"/>
<g>
</g>
<g>
</g>
<g>
</g>
<g>
</g>
<g>
</g>
<g>
</g>
<g>
</g>
<g>
</g>
<g>
</g>
<g>
</g>
<g>
</g>
<g>
</g>
<g>
</g>
<g>
</g>
<g>
</g>
</svg>
